<?xml version="1.0" encoding="UTF-8"?>
<svg height="26" version="1.1" viewBox="0 0 34 26" width="34" xmlns="http://www.w3.org/2000/svg" xmlns:xlink="http://www.w3.org/1999/xlink">
    <title>Group 4</title>
    <g fill="none" fill-rule="evenodd" id="Toolkit-&amp;-Modules" stroke="none" stroke-width="1">
        <g id="Disney.xx---UI-Elements-&amp;-Icon-Library" transform="translate(-1388.000000, -338.000000)">
            <g id="Group-4" transform="translate(1388.000000, 338.000000)">
                <polygon fill="#0077DA" id="Fill-1" points="0 26 34 26 34 0 0 0"/>
                <path d="M18.2789,13.1028 L12.2789,15.9608 C12.1909,16.0028 12.0959,16.0238 11.9989,16.0238 C11.9039,16.0238 11.8079,16.0028 11.7189,15.9608 L5.7189,13.1028 C5.4109,12.9558 5.2869,12.5978 5.4409,12.3038 C5.5949,12.0098 5.9719,11.8908 6.2789,12.0378 L11.9989,14.7638 L17.7189,12.0378 C18.0269,11.8908 18.4039,12.0098 18.5589,12.3038 C18.7119,12.5978 18.5879,12.9558 18.2789,13.1028 M18.2489,8.9998 L5.7499,8.9998 C5.0619,8.9998 4.4999,9.5358 4.4999,10.1898 L4.4999,17.8098 C4.4999,18.4648 5.0619,18.9998 5.7499,18.9998 L18.2489,18.9998 C18.9369,18.9998 19.4999,18.4648 19.4999,17.8098 L19.4999,10.1898 C19.4999,9.5358 18.9369,8.9998 18.2489,8.9998" fill="#FFFFFF" id="Fill-2"/>
            </g>
        </g>
    </g>
</svg>